<svg width="164" height="32" viewBox="0 0 164 32" fill="none" xmlns="http://www.w3.org/2000/svg">
<path d="M19.0818 0H13.7484V9.56276L6.9864 2.80073L3.21517 6.57196L9.97645 13.3332H0.414764V18.6666H9.97727L3.21571 25.4281L6.98694 29.1994L13.7484 22.4379V32H19.0818V22.4386L25.8426 29.1994L29.6138 25.4281L22.8523 18.6666H32.4148V13.3332H22.8531L29.6144 6.57196L25.8431 2.80073L19.0818 9.56209V0Z" fill="#FFB31A"/>
<path d="M57.6335 4.85417V26.1875H54.6752L43.8314 10.5417H43.6335V26.1875H40.4148V4.85417H43.3939L54.2481 20.5208H54.446V4.85417H57.6335Z" fill="#141C24"/>
<path d="M68.8184 26.5104C67.3184 26.5104 66.0094 26.1667 64.8913 25.4792C63.7733 24.7917 62.9052 23.8299 62.2872 22.5937C61.6691 21.3576 61.3601 19.9132 61.3601 18.2604C61.3601 16.6007 61.6691 15.1493 62.2872 13.9062C62.9052 12.6632 63.7733 11.6979 64.8913 11.0104C66.0094 10.3229 67.3184 9.97917 68.8184 9.97917C70.3184 9.97917 71.6274 10.3229 72.7455 11.0104C73.8635 11.6979 74.7316 12.6632 75.3497 13.9062C75.9677 15.1493 76.2767 16.6007 76.2767 18.2604C76.2767 19.9132 75.9677 21.3576 75.3497 22.5937C74.7316 23.8299 73.8635 24.7917 72.7455 25.4792C71.6274 26.1667 70.3184 26.5104 68.8184 26.5104ZM68.8288 23.8958C69.8011 23.8958 70.6066 23.6389 71.2455 23.125C71.8844 22.6111 72.3566 21.9271 72.6622 21.0729C72.9747 20.2187 73.1309 19.2778 73.1309 18.25C73.1309 17.2292 72.9747 16.2917 72.6622 15.4375C72.3566 14.5764 71.8844 13.8854 71.2455 13.3646C70.6066 12.8438 69.8011 12.5833 68.8288 12.5833C67.8497 12.5833 67.0372 12.8438 66.3913 13.3646C65.7524 13.8854 65.2767 14.5764 64.9642 15.4375C64.6587 16.2917 64.5059 17.2292 64.5059 18.25C64.5059 19.2778 64.6587 20.2187 64.9642 21.0729C65.2767 21.9271 65.7524 22.6111 66.3913 23.125C67.0372 23.6389 67.8497 23.8958 68.8288 23.8958Z" fill="#141C24"/>
<path d="M92.8965 10.1875L87.0945 26.1875H83.7611L77.9486 10.1875H81.2924L85.3445 22.5H85.5111L89.5528 10.1875H92.8965Z" fill="#141C24"/>
<path d="M95.8236 26.1875V10.1875H98.9382V26.1875H95.8236ZM97.3965 7.71875C96.8549 7.71875 96.3896 7.53819 96.0007 7.17708C95.6188 6.80903 95.4278 6.37153 95.4278 5.86458C95.4278 5.35069 95.6188 4.91319 96.0007 4.55208C96.3896 4.18403 96.8549 4 97.3965 4C97.9382 4 98.4 4.18403 98.782 4.55208C99.1708 4.91319 99.3653 5.35069 99.3653 5.86458C99.3653 6.37153 99.1708 6.80903 98.782 7.17708C98.4 7.53819 97.9382 7.71875 97.3965 7.71875Z" fill="#141C24"/>
<path d="M110.024 26.5104C108.448 26.5104 107.09 26.1736 105.951 25.5C104.819 24.8194 103.944 23.8646 103.326 22.6354C102.715 21.3993 102.41 19.9514 102.41 18.2917C102.41 16.6528 102.715 15.2083 103.326 13.9583C103.944 12.7083 104.805 11.7326 105.91 11.0312C107.021 10.3299 108.319 9.97917 109.805 9.97917C110.708 9.97917 111.583 10.1285 112.43 10.4271C113.278 10.7257 114.038 11.1944 114.712 11.8333C115.385 12.4722 115.917 13.3021 116.305 14.3229C116.694 15.3368 116.889 16.5694 116.889 18.0208V19.125H104.17V16.7917H113.837C113.837 15.9722 113.67 15.2465 113.337 14.6146C113.003 13.9757 112.535 13.4722 111.93 13.1042C111.333 12.7361 110.632 12.5521 109.826 12.5521C108.951 12.5521 108.187 12.7674 107.535 13.1979C106.889 13.6215 106.389 14.1771 106.035 14.8646C105.687 15.5451 105.514 16.2847 105.514 17.0833V18.9062C105.514 19.9757 105.701 20.8854 106.076 21.6354C106.458 22.3854 106.989 22.9583 107.67 23.3542C108.351 23.7431 109.146 23.9375 110.055 23.9375C110.646 23.9375 111.184 23.8542 111.67 23.6875C112.156 23.5139 112.576 23.2569 112.93 22.9167C113.285 22.5764 113.555 22.1562 113.743 21.6562L116.691 22.1875C116.455 23.0556 116.031 23.816 115.42 24.4687C114.816 25.1146 114.055 25.6181 113.139 25.9792C112.229 26.3333 111.191 26.5104 110.024 26.5104Z" fill="#141C24"/>
<path d="M122.43 10.1875L125.962 16.4167L129.524 10.1875H132.93L127.941 18.1875L132.972 26.1875H129.566L125.962 20.2083L122.368 26.1875H118.951L123.93 18.1875L119.014 10.1875H122.43Z" fill="#141C24"/>
<path d="M140.756 26.5417C139.742 26.5417 138.825 26.3542 138.006 25.9792C137.186 25.5972 136.537 25.0451 136.058 24.3229C135.586 23.6007 135.35 22.7153 135.35 21.6667C135.35 20.7639 135.523 20.0208 135.87 19.4375C136.218 18.8542 136.686 18.3924 137.277 18.0521C137.867 17.7118 138.527 17.4549 139.256 17.2812C139.985 17.1076 140.728 16.9757 141.485 16.8854C142.443 16.7743 143.221 16.684 143.818 16.6146C144.416 16.5382 144.85 16.4167 145.12 16.25C145.391 16.0833 145.527 15.8125 145.527 15.4375V15.3646C145.527 14.4549 145.27 13.75 144.756 13.25C144.249 12.75 143.492 12.5 142.485 12.5C141.436 12.5 140.61 12.7326 140.006 13.1979C139.409 13.6562 138.995 14.1667 138.766 14.7292L135.839 14.0625C136.186 13.0903 136.693 12.3056 137.36 11.7083C138.034 11.1042 138.808 10.6667 139.683 10.3958C140.558 10.1181 141.478 9.97917 142.443 9.97917C143.082 9.97917 143.759 10.0556 144.475 10.2083C145.197 10.3542 145.87 10.625 146.495 11.0208C147.127 11.4167 147.645 11.9826 148.048 12.7188C148.45 13.4479 148.652 14.3958 148.652 15.5625V26.1875H145.61V24H145.485C145.284 24.4028 144.982 24.7986 144.579 25.1875C144.176 25.5764 143.659 25.8993 143.027 26.1562C142.395 26.4132 141.638 26.5417 140.756 26.5417ZM141.433 24.0417C142.294 24.0417 143.03 23.8715 143.641 23.5312C144.259 23.191 144.728 22.7465 145.048 22.1979C145.374 21.6424 145.537 21.0486 145.537 20.4167V18.3542C145.426 18.4653 145.211 18.5694 144.891 18.6667C144.579 18.7569 144.221 18.8368 143.818 18.9062C143.416 18.9687 143.023 19.0278 142.641 19.0833C142.259 19.1319 141.94 19.1736 141.683 19.2083C141.079 19.2847 140.527 19.4132 140.027 19.5937C139.534 19.7743 139.138 20.0347 138.839 20.375C138.548 20.7083 138.402 21.1528 138.402 21.7083C138.402 22.4792 138.686 23.0625 139.256 23.4583C139.825 23.8472 140.551 24.0417 141.433 24.0417Z" fill="#141C24"/>
<path d="M152.8 26.1875V10.1875H155.811V12.7292H155.977C156.269 11.8681 156.783 11.191 157.519 10.6979C158.262 10.1979 159.102 9.94792 160.04 9.94792C160.234 9.94792 160.463 9.95486 160.727 9.96875C160.998 9.98264 161.21 10 161.363 10.0208V13C161.238 12.9653 161.015 12.9271 160.696 12.8854C160.377 12.8368 160.057 12.8125 159.738 12.8125C159.002 12.8125 158.345 12.9688 157.769 13.2812C157.199 13.5868 156.748 14.0139 156.415 14.5625C156.081 15.1042 155.915 15.7222 155.915 16.4167V26.1875H152.8Z" fill="#141C24"/>
</svg>
