<svg width="190" height="32" viewBox="0 0 190 32" fill="none" xmlns="http://www.w3.org/2000/svg">
<path d="M15.4888 24.589C15.4888 28.682 12.1707 32 8.07773 32C3.98472 32 0.666687 28.682 0.666687 24.589C0.666687 20.496 3.98472 17.1779 8.07773 17.1779C12.1707 17.1779 15.4888 20.496 15.4888 24.589Z" fill="url(#paint0_linear_2_106402)"/>
<path d="M32.6667 7.41104C32.6667 11.504 29.3486 14.8221 25.2556 14.8221C21.1626 14.8221 17.8446 11.504 17.8446 7.41104C17.8446 3.31804 21.1626 0 25.2556 0C29.3486 0 32.6667 3.31804 32.6667 7.41104Z" fill="url(#paint1_linear_2_106402)"/>
<path d="M15.4888 7.41104C15.4888 11.504 12.1707 14.8221 8.07773 14.8221C3.98472 14.8221 0.666687 11.504 0.666687 7.41104C0.666687 3.31804 3.98472 0 8.07773 0C12.1707 0 15.4888 3.31804 15.4888 7.41104Z" fill="url(#paint2_linear_2_106402)"/>
<path d="M32.6667 24.589C32.6667 28.682 29.3486 32 25.2556 32C21.1626 32 17.8446 28.682 17.8446 24.589C17.8446 20.496 21.1626 17.1779 25.2556 17.1779C29.3486 17.1779 32.6667 20.496 32.6667 24.589Z" fill="url(#paint3_linear_2_106402)"/>
<path d="M48.3972 25.568C46.8523 25.568 45.3563 25.3333 43.9092 24.864C42.4816 24.3751 41.3572 23.7493 40.5358 22.9867L41.6212 20.6987C42.4034 21.4027 43.4007 21.9796 44.6132 22.4293C45.8452 22.8596 47.1065 23.0747 48.3972 23.0747C50.0985 23.0747 51.3696 22.7911 52.2105 22.224C53.0514 21.6373 53.4718 20.8649 53.4718 19.9067C53.4718 19.2027 53.2372 18.6356 52.7678 18.2053C52.3181 17.7556 51.7509 17.4133 51.0665 17.1787C50.4016 16.944 49.4532 16.68 48.2212 16.3867C46.6763 16.0151 45.4247 15.6435 44.4665 15.272C43.5278 14.9004 42.7163 14.3333 42.0318 13.5707C41.3669 12.7884 41.0345 11.7422 41.0345 10.432C41.0345 9.33688 41.318 8.34933 41.8852 7.46933C42.4718 6.58933 43.3518 5.88533 44.5252 5.35733C45.6985 4.82933 47.1554 4.56533 48.8958 4.56533C50.1083 4.56533 51.3012 4.72177 52.4745 5.03466C53.6478 5.34755 54.6549 5.79733 55.4958 6.38399L54.5278 8.73066C53.6674 8.1831 52.7483 7.77244 51.7705 7.49866C50.7927 7.20533 49.8345 7.05866 48.8958 7.05866C47.2336 7.05866 45.982 7.36177 45.1412 7.96799C44.3198 8.57422 43.9092 9.35644 43.9092 10.3147C43.9092 11.0187 44.1438 11.5955 44.6132 12.0453C45.0825 12.4755 45.6594 12.8178 46.3438 13.072C47.0478 13.3067 47.9963 13.5609 49.1892 13.8347C50.734 14.2062 51.9758 14.5778 52.9145 14.9493C53.8532 15.3209 54.6549 15.888 55.3198 16.6507C56.0043 17.4133 56.3465 18.44 56.3465 19.7307C56.3465 20.8062 56.0532 21.7938 55.4665 22.6933C54.8798 23.5733 53.99 24.2773 52.7972 24.8053C51.6043 25.3138 50.1376 25.568 48.3972 25.568Z" fill="#141C24"/>
<path d="M66.2639 18.088L63.0372 21.08V25.3333H60.2212V3.56799H63.0372V17.5307L71.5146 9.78666H74.9172L68.3759 16.2107L75.5626 25.3333H72.1012L66.2639 18.088Z" fill="#141C24"/>
<path d="M91.2234 9.78666L83.6847 26.888C83.0198 28.472 82.2376 29.5867 81.338 30.232C80.458 30.8773 79.3923 31.2 78.1407 31.2C77.378 31.2 76.6349 31.0729 75.9114 30.8187C75.2074 30.584 74.6207 30.232 74.1514 29.7627L75.354 27.6507C76.1558 28.4133 77.0847 28.7947 78.1407 28.7947C78.8251 28.7947 79.3923 28.6089 79.842 28.2373C80.3114 27.8853 80.7318 27.2693 81.1034 26.3893L81.602 25.304L74.738 9.78666H77.6714L83.098 22.224L88.466 9.78666H91.2234Z" fill="#141C24"/>
<path d="M107.472 17.648C107.472 17.8631 107.453 18.1467 107.414 18.4987H94.8004C94.9764 19.8675 95.5729 20.9724 96.5898 21.8133C97.6262 22.6347 98.9071 23.0453 100.432 23.0453C102.29 23.0453 103.786 22.4195 104.92 21.168L106.475 22.9867C105.771 23.808 104.891 24.4338 103.835 24.864C102.799 25.2942 101.635 25.5093 100.344 25.5093C98.7018 25.5093 97.2449 25.1769 95.9738 24.512C94.7027 23.8276 93.7151 22.8791 93.0111 21.6667C92.3267 20.4542 91.9844 19.0853 91.9844 17.56C91.9844 16.0542 92.3169 14.6951 92.9818 13.4827C93.6662 12.2702 94.5951 11.3315 95.7684 10.6667C96.9613 9.98222 98.3009 9.63999 99.7871 9.63999C101.273 9.63999 102.593 9.98222 103.747 10.6667C104.92 11.3315 105.83 12.2702 106.475 13.4827C107.14 14.6951 107.472 16.0835 107.472 17.648ZM99.7871 12.016C98.4378 12.016 97.3035 12.4267 96.3844 13.248C95.4849 14.0693 94.9569 15.1449 94.8004 16.4747H104.774C104.617 15.1644 104.08 14.0987 103.16 13.2773C102.261 12.4364 101.136 12.016 99.7871 12.016Z" fill="#141C24"/>
<path d="M140.231 4.79999L133.367 25.3333H130.287L124.684 8.93599L119.082 25.3333H115.943L109.079 4.79999H112.1L117.644 21.4907L123.423 4.79999H126.122L131.783 21.5787L137.444 4.79999H140.231Z" fill="#141C24"/>
<path d="M147.896 9.63999C150.047 9.63999 151.689 10.168 152.824 11.224C153.977 12.28 154.554 13.8542 154.554 15.9467V25.3333H151.885V23.28C151.416 24.0035 150.741 24.5609 149.861 24.952C149 25.3236 147.974 25.5093 146.781 25.5093C145.04 25.5093 143.642 25.0889 142.586 24.248C141.55 23.4071 141.032 22.3022 141.032 20.9333C141.032 19.5644 141.53 18.4693 142.528 17.648C143.525 16.8071 145.109 16.3867 147.28 16.3867H151.738V15.8293C151.738 14.6169 151.386 13.688 150.682 13.0427C149.978 12.3973 148.942 12.0747 147.573 12.0747C146.654 12.0747 145.754 12.2311 144.874 12.544C143.994 12.8373 143.251 13.2382 142.645 13.7467L141.472 11.6347C142.273 10.9893 143.232 10.5004 144.346 10.168C145.461 9.81599 146.644 9.63999 147.896 9.63999ZM147.25 23.3387C148.326 23.3387 149.255 23.104 150.037 22.6347C150.819 22.1458 151.386 21.4613 151.738 20.5813V18.4107H147.397C145.011 18.4107 143.818 19.2124 143.818 20.816C143.818 21.5982 144.121 22.2142 144.728 22.664C145.334 23.1138 146.175 23.3387 147.25 23.3387Z" fill="#141C24"/>
<path d="M173.236 9.78666L166.431 25.3333H163.556L156.751 9.78666H159.684L165.023 22.2533L170.479 9.78666H173.236Z" fill="#141C24"/>
<path d="M189.485 17.648C189.485 17.8631 189.466 18.1467 189.427 18.4987H176.813C176.989 19.8675 177.586 20.9724 178.603 21.8133C179.639 22.6347 180.92 23.0453 182.445 23.0453C184.303 23.0453 185.799 22.4195 186.933 21.168L188.488 22.9867C187.784 23.808 186.904 24.4338 185.848 24.864C184.812 25.2942 183.648 25.5093 182.357 25.5093C180.715 25.5093 179.258 25.1769 177.987 24.512C176.716 23.8276 175.728 22.8791 175.024 21.6667C174.34 20.4542 173.997 19.0853 173.997 17.56C173.997 16.0542 174.33 14.6951 174.995 13.4827C175.679 12.2702 176.608 11.3315 177.781 10.6667C178.974 9.98222 180.314 9.63999 181.8 9.63999C183.286 9.63999 184.606 9.98222 185.76 10.6667C186.933 11.3315 187.843 12.2702 188.488 13.4827C189.153 14.6951 189.485 16.0835 189.485 17.648ZM181.8 12.016C180.451 12.016 179.317 12.4267 178.397 13.248C177.498 14.0693 176.97 15.1449 176.813 16.4747H186.787C186.63 15.1644 186.093 14.0987 185.173 13.2773C184.274 12.4364 183.149 12.016 181.8 12.016Z" fill="#141C24"/>
<defs>
<linearGradient id="paint0_linear_2_106402" x1="0.666687" y1="32" x2="37.2492" y2="25.4001" gradientUnits="userSpaceOnUse">
<stop stop-color="#1975FF"/>
<stop offset="1" stop-color="#33A9FF"/>
</linearGradient>
<linearGradient id="paint1_linear_2_106402" x1="0.666687" y1="32" x2="37.2492" y2="25.4001" gradientUnits="userSpaceOnUse">
<stop stop-color="#1975FF"/>
<stop offset="1" stop-color="#33A9FF"/>
</linearGradient>
<linearGradient id="paint2_linear_2_106402" x1="0.666687" y1="32" x2="37.2492" y2="25.4001" gradientUnits="userSpaceOnUse">
<stop stop-color="#1975FF"/>
<stop offset="1" stop-color="#33A9FF"/>
</linearGradient>
<linearGradient id="paint3_linear_2_106402" x1="0.666687" y1="32" x2="37.2492" y2="25.4001" gradientUnits="userSpaceOnUse">
<stop stop-color="#1975FF"/>
<stop offset="1" stop-color="#33A9FF"/>
</linearGradient>
</defs>
</svg>
