<svg width="174" height="32" viewBox="0 0 174 32" fill="none" xmlns="http://www.w3.org/2000/svg">
<path d="M32 0C32 4.10912 30.3143 8.04994 27.3137 10.9555C24.3131 13.8611 20.2435 15.4934 16 15.4934C11.7566 15.4934 7.68689 13.8611 4.68631 10.9555C1.68573 8.04994 2.35289e-05 4.10912 2.28882e-05 1.68264e-06L32 0Z" fill="url(#paint0_linear_2_106405)"/>
<path d="M32 16.5066C32 20.6157 30.3143 24.5565 27.3137 27.4621C24.3131 30.3677 20.2435 32 16 32C11.7566 32 7.68689 30.3677 4.68631 27.4621C1.68573 24.5565 2.35289e-05 20.6157 2.28882e-05 16.5066L32 16.5066Z" fill="url(#paint1_linear_2_106405)"/>
<path d="M40.7494 25.3332V4.79988H43.8587L54.1547 20.2585V4.79988H57.264V25.3332H54.1547L43.8587 9.87454V25.3332H40.7494Z" fill="#141C24"/>
<path d="M68.1197 25.6852C66.6921 25.6852 65.421 25.3723 64.3063 24.7465C63.2112 24.1012 62.3508 23.2114 61.725 22.0772C61.0992 20.943 60.7863 19.623 60.7863 18.1172C60.7863 16.5919 61.0894 15.2523 61.6957 14.0985C62.3214 12.9448 63.1819 12.0452 64.277 11.3999C65.3917 10.7545 66.6823 10.4319 68.149 10.4319C69.5766 10.4319 70.8183 10.7545 71.8743 11.3999C72.9303 12.0257 73.7517 12.8665 74.3383 13.9225C74.925 14.9785 75.2183 16.1421 75.2183 17.4132C75.2183 17.6088 75.2086 17.8239 75.189 18.0585C75.189 18.2737 75.1792 18.5181 75.1597 18.7919H63.837C63.9348 20.1999 64.3943 21.2754 65.2157 22.0185C66.0566 22.7421 67.0246 23.1039 68.1197 23.1039C68.9997 23.1039 69.733 22.9083 70.3197 22.5172C70.9259 22.1065 71.3757 21.559 71.669 20.8745H74.7783C74.3872 22.2434 73.605 23.3874 72.4317 24.3065C71.2779 25.2257 69.8406 25.6852 68.1197 25.6852ZM68.1197 12.9839C67.0832 12.9839 66.1641 13.2968 65.3623 13.9225C64.5606 14.5288 64.0717 15.4479 63.8957 16.6799H72.109C72.0503 15.5457 71.6494 14.6461 70.9063 13.9812C70.1632 13.3163 69.2343 12.9839 68.1197 12.9839Z" fill="#141C24"/>
<path d="M76.1772 25.3332L81.3398 18.0585L76.1772 10.7839H79.4918L83.3932 16.3572L87.2652 10.7839H90.6092L85.4465 18.0585L90.6092 25.3332H87.2652L83.3932 19.7599L79.4918 25.3332H76.1772Z" fill="#141C24"/>
<path d="M97.8673 25.6852C96.6353 25.6852 95.6184 25.4799 94.8167 25.0692C94.0149 24.6585 93.4184 24.1208 93.0273 23.4559C92.6362 22.7714 92.4407 22.0283 92.4407 21.2265C92.4407 19.8185 92.9882 18.7039 94.0833 17.8825C95.1784 17.0612 96.7429 16.6505 98.7767 16.6505H102.59V16.3865C102.59 15.2523 102.277 14.4017 101.651 13.8345C101.045 13.2674 100.253 12.9839 99.2753 12.9839C98.4149 12.9839 97.662 13.199 97.0167 13.6292C96.3909 14.0399 96.0096 14.6559 95.8727 15.4772H92.7633C92.8611 14.4212 93.2131 13.5217 93.8193 12.7785C94.4451 12.0159 95.2273 11.439 96.166 11.0479C97.1242 10.6372 98.1704 10.4319 99.3047 10.4319C101.338 10.4319 102.913 10.9697 104.027 12.0452C105.142 13.1012 105.699 14.5483 105.699 16.3865V25.3332H103.001L102.737 22.8399C102.326 23.6417 101.73 24.3163 100.947 24.8639C100.165 25.4114 99.1384 25.6852 97.8673 25.6852ZM98.4833 23.1625C99.3242 23.1625 100.028 22.967 100.595 22.5759C101.182 22.1652 101.632 21.6274 101.945 20.9625C102.277 20.2977 102.482 19.5643 102.561 18.7625H99.0993C97.8673 18.7625 96.9873 18.9777 96.4593 19.4079C95.9509 19.8381 95.6967 20.3759 95.6967 21.0212C95.6967 21.6861 95.9411 22.2141 96.43 22.6052C96.9384 22.9768 97.6229 23.1625 98.4833 23.1625Z" fill="#141C24"/>
<path d="M118.594 25.6852C116.56 25.6852 114.8 25.2452 113.314 24.3652C111.847 23.4657 110.713 22.2239 109.911 20.6399C109.11 19.0363 108.709 17.1883 108.709 15.0959C108.709 12.9839 109.11 11.1359 109.911 9.55188C110.713 7.94832 111.847 6.69677 113.314 5.79721C114.8 4.89765 116.56 4.44788 118.594 4.44788C120.999 4.44788 122.965 5.03454 124.49 6.20788C126.015 7.38121 126.983 9.02388 127.394 11.1359H123.933C123.659 9.94299 123.072 8.99454 122.173 8.29054C121.273 7.58654 120.071 7.23454 118.565 7.23454C116.511 7.23454 114.888 7.93854 113.695 9.34654C112.503 10.735 111.906 12.6514 111.906 15.0959C111.906 17.5208 112.503 19.4274 113.695 20.8159C114.888 22.2043 116.511 22.8985 118.565 22.8985C120.071 22.8985 121.273 22.5661 122.173 21.9012C123.072 21.2363 123.659 20.327 123.933 19.1732H127.394C126.983 21.207 126.015 22.8008 124.49 23.9545C122.965 25.1083 120.999 25.6852 118.594 25.6852Z" fill="#141C24"/>
<path d="M137.5 25.6852C136.111 25.6852 134.86 25.3723 133.745 24.7465C132.65 24.1012 131.78 23.2114 131.135 22.0772C130.489 20.9234 130.167 19.5839 130.167 18.0585C130.167 16.5332 130.489 15.2034 131.135 14.0692C131.799 12.9154 132.689 12.0257 133.804 11.3999C134.919 10.7545 136.16 10.4319 137.529 10.4319C138.918 10.4319 140.159 10.7545 141.255 11.3999C142.369 12.0257 143.249 12.9154 143.895 14.0692C144.559 15.2034 144.892 16.5332 144.892 18.0585C144.892 19.5839 144.559 20.9234 143.895 22.0772C143.249 23.2114 142.369 24.1012 141.255 24.7465C140.14 25.3723 138.888 25.6852 137.5 25.6852ZM137.5 23.0159C138.243 23.0159 138.927 22.8301 139.553 22.4585C140.199 22.087 140.717 21.5394 141.108 20.8159C141.499 20.0728 141.695 19.1537 141.695 18.0585C141.695 16.9634 141.499 16.0541 141.108 15.3305C140.736 14.5874 140.228 14.0301 139.583 13.6585C138.957 13.287 138.272 13.1012 137.529 13.1012C136.786 13.1012 136.092 13.287 135.447 13.6585C134.821 14.0301 134.312 14.5874 133.921 15.3305C133.53 16.0541 133.335 16.9634 133.335 18.0585C133.335 19.1537 133.53 20.0728 133.921 20.8159C134.312 21.5394 134.821 22.087 135.447 22.4585C136.072 22.8301 136.757 23.0159 137.5 23.0159Z" fill="#141C24"/>
<path d="M148.254 25.3332V10.7839H151.041L151.305 13.5412C151.814 12.583 152.518 11.8301 153.417 11.2825C154.336 10.7154 155.441 10.4319 156.732 10.4319V13.6879H155.881C155.021 13.6879 154.248 13.8345 153.564 14.1279C152.899 14.4017 152.361 14.8808 151.95 15.5652C151.559 16.2301 151.364 17.159 151.364 18.3519V25.3332H148.254Z" fill="#141C24"/>
<path d="M165.802 25.6852C164.374 25.6852 163.103 25.3723 161.989 24.7465C160.894 24.1012 160.033 23.2114 159.407 22.0772C158.782 20.943 158.469 19.623 158.469 18.1172C158.469 16.5919 158.772 15.2523 159.378 14.0985C160.004 12.9448 160.864 12.0452 161.959 11.3999C163.074 10.7545 164.365 10.4319 165.831 10.4319C167.259 10.4319 168.501 10.7545 169.557 11.3999C170.613 12.0257 171.434 12.8665 172.021 13.9225C172.607 14.9785 172.901 16.1421 172.901 17.4132C172.901 17.6088 172.891 17.8239 172.871 18.0585C172.871 18.2737 172.862 18.5181 172.842 18.7919H161.519C161.617 20.1999 162.077 21.2754 162.898 22.0185C163.739 22.7421 164.707 23.1039 165.802 23.1039C166.682 23.1039 167.415 22.9083 168.002 22.5172C168.608 22.1065 169.058 21.559 169.351 20.8745H172.461C172.07 22.2434 171.287 23.3874 170.114 24.3065C168.96 25.2257 167.523 25.6852 165.802 25.6852ZM165.802 12.9839C164.766 12.9839 163.846 13.2968 163.045 13.9225C162.243 14.5288 161.754 15.4479 161.578 16.6799H169.791C169.733 15.5457 169.332 14.6461 168.589 13.9812C167.846 13.3163 166.917 12.9839 165.802 12.9839Z" fill="#141C24"/>
<defs>
<linearGradient id="paint0_linear_2_106405" x1="2.28882e-05" y1="32" x2="36.5825" y2="25.4001" gradientUnits="userSpaceOnUse">
<stop stop-color="#E31C40"/>
<stop offset="1" stop-color="#F64C4C"/>
</linearGradient>
<linearGradient id="paint1_linear_2_106405" x1="2.28882e-05" y1="32" x2="36.5825" y2="25.4001" gradientUnits="userSpaceOnUse">
<stop stop-color="#E31C40"/>
<stop offset="1" stop-color="#F64C4C"/>
</linearGradient>
</defs>
</svg>
