<svg width="148" height="32" viewBox="0 0 148 32" fill="none" xmlns="http://www.w3.org/2000/svg">
<path d="M0 23.4667L23.4667 0L32 8.53333L8.53333 32L0 23.4667Z" fill="url(#paint0_linear_2_106408)"/>
<path d="M42.1628 26.6667V5.33988H55.4974V7.86072H44.9987V13.7045H54.7812V16.2253H44.9987V24.1459H55.4974V26.6667H42.1628Z" fill="#141C24"/>
<path d="M61.1693 26.6667H58.4766V4.38025H61.1693V26.6667Z" fill="#141C24"/>
<path d="M67.8724 26.6667H65.1797V10.668H67.8724V26.6667ZM68.0586 7.98962H64.9935V5.19666H68.0586V7.98962Z" fill="#141C24"/>
<path d="M76.6667 26.9818C75.1962 26.9818 74.0503 26.5664 73.2292 25.7357C72.408 24.8954 71.9974 23.573 71.9974 21.7683V12.9024H70.1784V10.668H71.9974V6.07035H74.6901V10.668H79.6458V12.9024H74.6901V20.5079C74.6901 21.3195 74.7044 21.9449 74.7331 22.3842C74.7617 22.8234 74.8715 23.234 75.0625 23.6159C75.2248 23.9501 75.4874 24.2032 75.8502 24.375C76.2131 24.5374 76.7048 24.6185 77.3255 24.6185C77.7647 24.6185 78.1897 24.5565 78.6002 24.4323C79.0108 24.2987 79.3068 24.1888 79.4883 24.1029H79.6458V26.5235C79.1397 26.6667 78.6241 26.7765 78.0989 26.8529C77.5833 26.9388 77.1059 26.9818 76.6667 26.9818Z" fill="#141C24"/>
<path d="M88.5976 27.0391C86.0482 27.0391 84.0668 26.323 82.6536 24.8907C81.25 23.4488 80.5482 21.4054 80.5482 18.7605C80.5482 16.1537 81.2309 14.0816 82.5963 12.5443C83.9618 10.9974 85.7474 10.224 87.9531 10.224C88.9462 10.224 89.8246 10.3672 90.5885 10.6537C91.3524 10.9401 92.0208 11.3889 92.5937 12C93.1667 12.6112 93.6059 13.3607 93.9114 14.2487C94.217 15.1272 94.3698 16.2062 94.3698 17.4857V18.9467H83.2838C83.2838 20.8086 83.7517 22.2314 84.6875 23.2149C85.6233 24.1984 86.9171 24.6901 88.569 24.6901C89.161 24.6901 89.7387 24.6233 90.3021 24.4896C90.875 24.3559 91.3906 24.1841 91.8489 23.974C92.3359 23.7544 92.7465 23.5443 93.0807 23.3438C93.4149 23.1337 93.6918 22.938 93.9114 22.7565H94.069V25.6927C93.7539 25.8169 93.3624 25.9744 92.8945 26.1654C92.4266 26.3468 92.0065 26.4901 91.6341 26.5951C91.1089 26.7383 90.6315 26.8481 90.2018 26.9245C89.7817 27.0009 89.2469 27.0391 88.5976 27.0391ZM91.7487 16.8842C91.7296 16.1585 91.6437 15.533 91.4909 15.0079C91.3381 14.4827 91.1185 14.0387 90.832 13.6758C90.5169 13.2748 90.1111 12.9692 89.6146 12.7592C89.1276 12.5491 88.5213 12.4441 87.7956 12.4441C87.0794 12.4441 86.4683 12.5539 85.9622 12.7735C85.4657 12.9835 85.0121 13.2939 84.6016 13.7045C84.2005 14.1246 83.895 14.5925 83.6849 15.1081C83.4748 15.6142 83.3411 16.2062 83.2838 16.8842H91.7487Z" fill="#141C24"/>
<path d="M112.059 26.6667H108.807L103.608 18.1302L98.3229 26.6667H95.2578L102.033 15.9961L95.4583 5.33988H98.6953L103.794 13.7188L108.965 5.33988H112.044L105.37 15.8529L112.059 26.6667Z" fill="#141C24"/>
<path d="M120.495 27.0248C119.397 27.0248 118.389 26.8577 117.473 26.5235C116.556 26.1797 115.768 25.6641 115.109 24.9766C114.451 24.2891 113.94 23.425 113.577 22.3842C113.214 21.3338 113.033 20.102 113.033 18.6888C113.033 17.2852 113.219 16.0725 113.591 15.0508C113.973 14.0291 114.479 13.1697 115.109 12.4727C115.74 11.7756 116.523 11.2409 117.458 10.8685C118.404 10.4866 119.416 10.2956 120.495 10.2956C121.373 10.2956 122.218 10.4197 123.03 10.668C123.851 10.9163 124.582 11.2027 125.221 11.5274V14.5495H125.064C124.873 14.3872 124.625 14.201 124.319 13.9909C124.023 13.7809 123.66 13.566 123.23 13.3464C122.858 13.1554 122.419 12.9883 121.913 12.8451C121.407 12.7019 120.92 12.6302 120.452 12.6302C119.058 12.6302 117.936 13.1602 117.086 14.2201C116.246 15.2704 115.826 16.76 115.826 18.6888C115.826 20.5795 116.231 22.0547 117.043 23.1146C117.864 24.165 119 24.6901 120.452 24.6901C121.33 24.6901 122.166 24.5087 122.958 24.1459C123.751 23.783 124.453 23.3151 125.064 22.7422H125.221V25.7644C124.954 25.8885 124.62 26.0413 124.219 26.2227C123.818 26.3946 123.455 26.5235 123.13 26.6094C122.672 26.7431 122.261 26.8434 121.898 26.9102C121.536 26.9866 121.068 27.0248 120.495 27.0248Z" fill="#141C24"/>
<path d="M134.631 27.0391C132.082 27.0391 130.101 26.323 128.687 24.8907C127.284 23.4488 126.582 21.4054 126.582 18.7605C126.582 16.1537 127.265 14.0816 128.63 12.5443C129.996 10.9974 131.781 10.224 133.987 10.224C134.98 10.224 135.858 10.3672 136.622 10.6537C137.386 10.9401 138.055 11.3889 138.628 12C139.201 12.6112 139.64 13.3607 139.945 14.2487C140.251 15.1272 140.404 16.2062 140.404 17.4857V18.9467H129.318C129.318 20.8086 129.786 22.2314 130.721 23.2149C131.657 24.1984 132.951 24.6901 134.603 24.6901C135.195 24.6901 135.773 24.6233 136.336 24.4896C136.909 24.3559 137.424 24.1841 137.883 23.974C138.37 23.7544 138.78 23.5443 139.115 23.3438C139.449 23.1337 139.726 22.938 139.945 22.7565H140.103V25.6927C139.788 25.8169 139.396 25.9744 138.928 26.1654C138.46 26.3468 138.04 26.4901 137.668 26.5951C137.143 26.7383 136.665 26.8481 136.236 26.9245C135.816 27.0009 135.281 27.0391 134.631 27.0391ZM137.783 16.8842C137.763 16.1585 137.677 15.533 137.525 15.0079C137.372 14.4827 137.152 14.0387 136.866 13.6758C136.551 13.2748 136.145 12.9692 135.648 12.7592C135.161 12.5491 134.555 12.4441 133.829 12.4441C133.113 12.4441 132.502 12.5539 131.996 12.7735C131.5 12.9835 131.046 13.2939 130.635 13.7045C130.234 14.1246 129.929 14.5925 129.719 15.1081C129.509 15.6142 129.375 16.2062 129.318 16.8842H137.783Z" fill="#141C24"/>
<path d="M145.875 26.6667H143.182V4.38025H145.875V26.6667Z" fill="#141C24"/>
<defs>
<linearGradient id="paint0_linear_2_106408" x1="0" y1="32" x2="36.5825" y2="25.4001" gradientUnits="userSpaceOnUse">
<stop stop-color="#40BF7F"/>
<stop offset="1" stop-color="#7AD65C"/>
</linearGradient>
</defs>
</svg>
