<svg width="158" height="32" viewBox="0 0 158 32" fill="none" xmlns="http://www.w3.org/2000/svg">
<path d="M0.333344 0H11V10.6667H0.333344V0Z" fill="#F89007"/>
<path d="M0.333344 10.6667H11V21.3333H0.333344V10.6667Z" fill="#FAA638"/>
<path d="M0.333344 21.3333H11V32H0.333344V21.3333Z" fill="#FBBC6A"/>
<path d="M11 10.6667H21.6667V21.3333H11V10.6667Z" fill="#F89007"/>
<path d="M11 21.3333H21.6667V32H11V21.3333Z" fill="#FAA638"/>
<path d="M21.6667 21.3333H32.3333V32H21.6667V21.3333Z" fill="#F89007"/>
<path d="M41.2136 25.3334V24.5121L51.7149 7.67475H44.0296C43.5211 7.67475 43.2473 7.88986 43.2082 8.32008L42.7682 11.7521H42.0936V10.3734C42.0936 8.65252 42.0056 7.39119 41.8296 6.58941C42.4553 6.76541 43.5407 6.85341 45.0856 6.85341H54.5602V7.67475L44.0296 24.5121H52.3602C52.8687 24.5121 53.1425 24.297 53.1816 23.8667L53.6216 20.4347H54.2962V21.8134C54.2962 23.5343 54.3842 24.7956 54.5602 25.5974C53.9345 25.4214 52.8491 25.3334 51.3042 25.3334H41.2136Z" fill="#141C24"/>
<path d="M62.5286 12.3094C63.8779 12.3094 64.9437 12.7592 65.7259 13.6587C66.5081 14.5583 66.8993 15.8783 66.8993 17.6187C66.8993 17.9707 66.8797 18.3619 66.8406 18.7921H58.8326V18.9974C58.8326 20.8552 59.165 22.3219 59.8299 23.3974C60.5144 24.4534 61.3846 24.9814 62.4406 24.9814C63.5161 24.9814 64.3961 24.7076 65.0806 24.1601C65.765 23.6125 66.2344 22.8303 66.4886 21.8134L67.0459 21.9307C66.8113 23.1236 66.2735 24.0525 65.4326 24.7174C64.5917 25.3627 63.6237 25.6854 62.5286 25.6854C60.8272 25.6854 59.4095 25.089 58.2752 23.8961C57.1606 22.7032 56.6033 21.0801 56.6033 19.0267C56.6033 16.9539 57.1704 15.321 58.3046 14.1281C59.4388 12.9156 60.8468 12.3094 62.5286 12.3094ZM64.8752 16.6214C64.8752 14.2161 63.9757 13.0134 62.1766 13.0134C61.277 13.0134 60.5046 13.5023 59.8593 14.4801C59.2335 15.4579 58.901 16.6996 58.8619 18.2054H64.7579C64.8361 17.5405 64.8752 17.0125 64.8752 16.6214Z" fill="#141C24"/>
<path d="M81.6365 16.7681V24.4534C81.6365 24.6881 81.7734 24.8054 82.0472 24.8054H83.4258V25.3334H78.1458V24.8054H79.1138C79.3876 24.8054 79.5245 24.6881 79.5245 24.4534V16.3867C79.5245 15.3894 79.2996 14.6561 78.8498 14.1867C78.4196 13.6979 77.8427 13.4534 77.1192 13.4534C76.1023 13.4534 75.2614 14.0596 74.5965 15.2721C73.9316 16.465 73.5992 18.1859 73.5992 20.4347V24.3947C73.5992 24.6685 73.7361 24.8054 74.0098 24.8054H74.9778V25.3334H69.6978V24.8054H71.0765C71.3503 24.8054 71.4872 24.6881 71.4872 24.4534V13.6001C71.4872 13.3263 71.3503 13.1894 71.0765 13.1894H69.6978V12.6614H71.1352C72.3085 12.6614 73.1298 12.6027 73.5992 12.4854V16.4747C74.2641 13.6979 75.7307 12.3094 77.9992 12.3094C79.0161 12.3094 79.8765 12.681 80.5805 13.4241C81.2845 14.1476 81.6365 15.2623 81.6365 16.7681Z" fill="#141C24"/>
<path d="M87.5575 24.3947V13.6001C87.5575 13.3263 87.4206 13.1894 87.1468 13.1894H85.7682V12.6614H87.2055C88.3788 12.6614 89.2001 12.6027 89.6695 12.4854V24.4534C89.6695 24.6881 89.8064 24.8054 90.0801 24.8054H91.4588V25.3334H85.7682V24.8054H87.1468C87.4206 24.8054 87.5575 24.6685 87.5575 24.3947ZM87.6161 9.43475C87.3619 9.16097 87.2348 8.82853 87.2348 8.43741C87.2348 8.0463 87.3619 7.72364 87.6161 7.46941C87.8899 7.19564 88.2224 7.05875 88.6135 7.05875C89.0046 7.05875 89.3273 7.19564 89.5815 7.46941C89.8553 7.72364 89.9921 8.0463 89.9921 8.43741C89.9921 8.82853 89.8553 9.16097 89.5815 9.43475C89.3273 9.68897 89.0046 9.81608 88.6135 9.81608C88.2224 9.81608 87.8899 9.68897 87.6161 9.43475Z" fill="#141C24"/>
<path d="M96.3737 9.55208H96.8138V12.6614H99.7471V13.1894H96.8138V23.1334C96.8138 24.1894 97.1071 24.7174 97.6938 24.7174C97.9675 24.7174 98.2022 24.5903 98.3978 24.3361C98.6129 24.0819 98.7204 23.7885 98.7204 23.4561C98.7204 23.1236 98.6911 22.8107 98.6324 22.5174L99.1898 22.4294C99.268 22.7227 99.3071 23.0454 99.3071 23.3974C99.3071 24.1014 99.092 24.6587 98.6618 25.0694C98.2511 25.4801 97.7035 25.6854 97.0191 25.6854C96.3346 25.6854 95.7773 25.4116 95.3471 24.8641C94.9169 24.297 94.7018 23.4561 94.7018 22.3414V13.6001C94.7018 13.3263 94.5649 13.1894 94.2911 13.1894H92.9124V12.6614H94.3498C94.9755 12.6614 95.6502 11.625 96.3737 9.55208Z" fill="#141C24"/>
<path d="M113.165 16.7681V24.4534C113.165 24.6881 113.302 24.8054 113.576 24.8054H114.955V25.3334H109.675V24.8054H110.643C110.916 24.8054 111.053 24.6881 111.053 24.4534V16.3867C111.053 15.3894 110.828 14.6561 110.379 14.1867C109.948 13.6979 109.371 13.4534 108.648 13.4534C107.631 13.4534 106.79 14.0596 106.125 15.2721C105.46 16.465 105.128 18.1859 105.128 20.4347V24.3947C105.128 24.6685 105.265 24.8054 105.539 24.8054H106.507V25.3334H101.227V24.8054H102.605C102.879 24.8054 103.016 24.6881 103.016 24.4534V7.26408C103.016 6.9903 102.879 6.85341 102.605 6.85341H101.227V6.32542H102.664C103.837 6.32542 104.659 6.26675 105.128 6.14941V16.4747C105.793 13.6979 107.259 12.3094 109.528 12.3094C110.545 12.3094 111.405 12.681 112.109 13.4241C112.813 14.1476 113.165 15.2623 113.165 16.7681Z" fill="#141C24"/>
<path d="M124.497 12.3094C125.26 12.3094 125.876 12.6321 126.345 13.2774C126.834 13.9227 127.079 14.7343 127.079 15.7121C127.079 16.6899 126.678 17.1787 125.876 17.1787C125.407 17.1787 125.025 17.0321 124.732 16.7387C124.986 16.1716 125.113 15.5947 125.113 15.0081C125.113 13.9716 124.683 13.4534 123.823 13.4534C123.099 13.4534 122.454 14.0596 121.887 15.2721C121.339 16.465 121.065 18.2054 121.065 20.4934V24.3947C121.065 24.6685 121.202 24.8054 121.476 24.8054H123.441V25.3334H117.164V24.8054H118.543C118.816 24.8054 118.953 24.6685 118.953 24.3947V13.6001C118.953 13.3263 118.816 13.1894 118.543 13.1894H117.164V12.6614H118.601C119.775 12.6614 120.596 12.6027 121.065 12.4854V16.2401C121.378 14.8907 121.838 13.9032 122.444 13.2774C123.05 12.6321 123.735 12.3094 124.497 12.3094Z" fill="#141C24"/>
<path d="M130.032 23.8961C128.937 22.7032 128.39 21.0703 128.39 18.9974C128.39 16.9245 128.937 15.2916 130.032 14.0987C131.127 12.9059 132.555 12.3094 134.315 12.3094C136.075 12.3094 137.503 12.9059 138.598 14.0987C139.712 15.2916 140.27 16.9245 140.27 18.9974C140.27 21.0703 139.712 22.7032 138.598 23.8961C137.503 25.089 136.075 25.6854 134.315 25.6854C132.555 25.6854 131.127 25.089 130.032 23.8961ZM131.675 14.5974C130.971 15.673 130.619 17.1396 130.619 18.9974C130.619 20.8552 130.971 22.3316 131.675 23.4267C132.379 24.5023 133.259 25.0401 134.315 25.0401C135.371 25.0401 136.251 24.5023 136.955 23.4267C137.679 22.3316 138.04 20.8552 138.04 18.9974C138.04 17.1396 137.679 15.673 136.955 14.5974C136.251 13.5023 135.371 12.9547 134.315 12.9547C133.259 12.9547 132.379 13.5023 131.675 14.5974Z" fill="#141C24"/>
<path d="M154.712 16.7681V24.4534C154.712 24.6881 154.849 24.8054 155.123 24.8054H156.501V25.3334H151.221V24.8054H152.189C152.463 24.8054 152.6 24.6881 152.6 24.4534V16.3867C152.6 15.3894 152.375 14.6561 151.925 14.1867C151.495 13.6979 150.918 13.4534 150.195 13.4534C149.178 13.4534 148.337 14.0596 147.672 15.2721C147.007 16.465 146.675 18.1859 146.675 20.4347V24.3947C146.675 24.6685 146.812 24.8054 147.085 24.8054H148.053V25.3334H142.773V24.8054H144.152C144.426 24.8054 144.563 24.6881 144.563 24.4534V13.6001C144.563 13.3263 144.426 13.1894 144.152 13.1894H142.773V12.6614H144.211C145.384 12.6614 146.205 12.6027 146.675 12.4854V16.4747C147.34 13.6979 148.806 12.3094 151.075 12.3094C152.092 12.3094 152.952 12.681 153.656 13.4241C154.36 14.1476 154.712 15.2623 154.712 16.7681Z" fill="#141C24"/>
</svg>
