<svg width="175" height="32" viewBox="0 0 175 32" fill="none" xmlns="http://www.w3.org/2000/svg">
<path fill-rule="evenodd" clip-rule="evenodd" d="M16.3334 27C22.4085 27 27.3334 22.0751 27.3334 16C27.3334 9.92487 22.4085 5 16.3334 5C10.2582 5 5.33335 9.92487 5.33335 16C5.33335 22.0751 10.2582 27 16.3334 27ZM16.3334 32C25.1699 32 32.3334 24.8366 32.3334 16C32.3334 7.16344 25.1699 0 16.3334 0C7.4968 0 0.333351 7.16344 0.333351 16C0.333351 24.8366 7.4968 32 16.3334 32Z" fill="#66BFFF"/>
<path d="M43.0521 5.81246V26.6666H40.2878V5.81246H43.0521Z" fill="#141C24"/>
<path d="M50.3281 14.4778V26.6666H47.6784V11.1692H50.1849L50.3281 14.4778ZM49.6979 18.3307L48.5951 18.2877C48.6046 17.2278 48.7622 16.2491 49.0677 15.3515C49.3733 14.4444 49.803 13.6566 50.3568 12.9882C50.9106 12.3198 51.5695 11.8042 52.3334 11.4414C53.1068 11.069 53.9614 10.8828 54.8972 10.8828C55.661 10.8828 56.3485 10.9878 56.9597 11.1979C57.5708 11.3984 58.0912 11.723 58.5209 12.1718C58.9601 12.6206 59.2943 13.2031 59.5235 13.9192C59.7526 14.6258 59.8672 15.49 59.8672 16.5117V26.6666H57.2031V16.483C57.2031 15.6714 57.0838 15.0221 56.8451 14.5351C56.6064 14.0386 56.2578 13.6805 55.7995 13.4609C55.3412 13.2317 54.7778 13.1171 54.1094 13.1171C53.4505 13.1171 52.849 13.2556 52.3047 13.5325C51.77 13.8094 51.3069 14.1914 50.9154 14.6783C50.5334 15.1653 50.2327 15.7239 50.013 16.3541C49.803 16.9748 49.6979 17.6336 49.6979 18.3307Z" fill="#141C24"/>
<path d="M67.4297 26.6666H64.78V9.82288C64.78 8.6484 65.0091 7.65534 65.4675 6.84371C65.9258 6.03208 66.5799 5.41619 67.4297 4.99605C68.2795 4.57591 69.2869 4.36584 70.4518 4.36584C71.1393 4.36584 71.8125 4.45178 72.4714 4.62366C73.1302 4.78598 73.8082 4.99128 74.5052 5.23954L74.0612 7.47392C73.622 7.30204 73.1111 7.13972 72.5287 6.98694C71.9558 6.82461 71.3255 6.74345 70.638 6.74345C69.5018 6.74345 68.6806 7.00126 68.1745 7.51689C67.678 8.02296 67.4297 8.79163 67.4297 9.82288V26.6666ZM70.5951 11.1692V13.2031H62.3308V11.1692H70.5951ZM75.8086 11.1692V26.6666H73.1589V11.1692H75.8086Z" fill="#141C24"/>
<path d="M82.8125 14.4778V26.6666H80.1628V11.1692H82.6693L82.8125 14.4778ZM82.1823 18.3307L81.0795 18.2877C81.089 17.2278 81.2466 16.2491 81.5521 15.3515C81.8577 14.4444 82.2874 13.6566 82.8412 12.9882C83.395 12.3198 84.0538 11.8042 84.8177 11.4414C85.5912 11.069 86.4458 10.8828 87.3815 10.8828C88.1454 10.8828 88.8329 10.9878 89.444 11.1979C90.0551 11.3984 90.5755 11.723 91.0052 12.1718C91.4445 12.6206 91.7787 13.2031 92.0078 13.9192C92.237 14.6258 92.3516 15.49 92.3516 16.5117V26.6666H89.6875V16.483C89.6875 15.6714 89.5682 15.0221 89.3295 14.5351C89.0907 14.0386 88.7422 13.6805 88.2839 13.4609C87.8255 13.2317 87.2622 13.1171 86.5938 13.1171C85.9349 13.1171 85.3334 13.2556 84.7891 13.5325C84.2544 13.8094 83.7913 14.1914 83.3998 14.6783C83.0178 15.1653 82.717 15.7239 82.4974 16.3541C82.2874 16.9748 82.1823 17.6336 82.1823 18.3307Z" fill="#141C24"/>
<path d="M99.2552 11.1692V26.6666H96.5912V11.1692H99.2552ZM96.3907 7.05855C96.3907 6.62887 96.5196 6.26602 96.7774 5.97001C97.0447 5.674 97.4362 5.526 97.9519 5.526C98.4579 5.526 98.8446 5.674 99.112 5.97001C99.3889 6.26602 99.5274 6.62887 99.5274 7.05855C99.5274 7.46914 99.3889 7.82244 99.112 8.11845C98.8446 8.40491 98.4579 8.54814 97.9519 8.54814C97.4362 8.54814 97.0447 8.40491 96.7774 8.11845C96.5196 7.82244 96.3907 7.46914 96.3907 7.05855Z" fill="#141C24"/>
<path d="M109.997 11.1692V13.2031H101.619V11.1692H109.997ZM104.454 7.4023H107.104V22.8281C107.104 23.3533 107.185 23.7495 107.348 24.0169C107.51 24.2842 107.72 24.4609 107.978 24.5468C108.236 24.6328 108.513 24.6757 108.809 24.6757C109.028 24.6757 109.257 24.6566 109.496 24.6185C109.744 24.5707 109.931 24.5325 110.055 24.5039L110.069 26.6666C109.859 26.7335 109.582 26.7955 109.238 26.8528C108.904 26.9197 108.498 26.9531 108.021 26.9531C107.372 26.9531 106.775 26.8242 106.23 26.5664C105.686 26.3086 105.252 25.8789 104.927 25.2773C104.612 24.6662 104.454 23.845 104.454 22.8138V7.4023Z" fill="#141C24"/>
<path d="M122.587 23.0859V11.1692H125.251V26.6666H122.716L122.587 23.0859ZM123.089 19.8203L124.191 19.7916C124.191 20.8229 124.082 21.7777 123.862 22.6562C123.652 23.5251 123.308 24.2795 122.831 24.9192C122.353 25.559 121.728 26.0603 120.954 26.4231C120.181 26.7764 119.24 26.9531 118.133 26.9531C117.379 26.9531 116.686 26.8433 116.056 26.6237C115.435 26.404 114.901 26.0651 114.452 25.6067C114.003 25.1484 113.655 24.5516 113.406 23.8164C113.168 23.0811 113.048 22.1979 113.048 21.1666V11.1692H115.698V21.1953C115.698 21.8923 115.774 22.47 115.927 22.9283C116.089 23.3771 116.304 23.7352 116.572 24.0026C116.849 24.2604 117.154 24.4418 117.488 24.5468C117.832 24.6519 118.185 24.7044 118.548 24.7044C119.675 24.7044 120.568 24.4895 121.227 24.0599C121.885 23.6206 122.358 23.0334 122.645 22.2981C122.941 21.5533 123.089 20.7274 123.089 19.8203Z" fill="#141C24"/>
<path d="M131.926 14.2487V26.6666H129.262V11.1692H131.783L131.926 14.2487ZM131.382 18.3307L130.15 18.2877C130.159 17.2278 130.298 16.2491 130.565 15.3515C130.832 14.4444 131.229 13.6566 131.754 12.9882C132.279 12.3198 132.933 11.8042 133.716 11.4414C134.499 11.069 135.406 10.8828 136.438 10.8828C137.163 10.8828 137.832 10.9878 138.443 11.1979C139.054 11.3984 139.584 11.7183 140.033 12.1575C140.481 12.5967 140.83 13.1601 141.078 13.8476C141.326 14.5351 141.451 15.3658 141.451 16.3398V26.6666H138.801V16.4687C138.801 15.6571 138.662 15.0078 138.385 14.5208C138.118 14.0338 137.736 13.6805 137.24 13.4609C136.743 13.2317 136.161 13.1171 135.492 13.1171C134.709 13.1171 134.055 13.2556 133.53 13.5325C133.005 13.8094 132.585 14.1914 132.27 14.6783C131.954 15.1653 131.725 15.7239 131.582 16.3541C131.448 16.9748 131.382 17.6336 131.382 18.3307ZM141.422 16.8698L139.646 17.414C139.655 16.5642 139.794 15.7478 140.061 14.9648C140.338 14.1818 140.734 13.4848 141.25 12.8737C141.775 12.2625 142.42 11.7803 143.184 11.427C143.948 11.0642 144.821 10.8828 145.805 10.8828C146.635 10.8828 147.371 10.9926 148.01 11.2122C148.66 11.4318 149.204 11.7708 149.643 12.2291C150.092 12.6779 150.431 13.2556 150.66 13.9622C150.889 14.6688 151.004 15.5091 151.004 16.483V26.6666H148.34V16.4544C148.34 15.5855 148.201 14.9123 147.925 14.4349C147.657 13.9479 147.275 13.6089 146.779 13.4179C146.292 13.2174 145.709 13.1171 145.031 13.1171C144.449 13.1171 143.933 13.2174 143.484 13.4179C143.036 13.6184 142.658 13.8954 142.353 14.2487C142.047 14.5924 141.813 14.9887 141.651 15.4375C141.498 15.8862 141.422 16.3637 141.422 16.8698Z" fill="#141C24"/>
<path d="M157.893 11.1692V26.6666H155.229V11.1692H157.893ZM155.029 7.05855C155.029 6.62887 155.158 6.26602 155.415 5.97001C155.683 5.674 156.074 5.526 156.59 5.526C157.096 5.526 157.483 5.674 157.75 5.97001C158.027 6.26602 158.165 6.62887 158.165 7.05855C158.165 7.46914 158.027 7.82244 157.75 8.11845C157.483 8.40491 157.096 8.54814 156.59 8.54814C156.074 8.54814 155.683 8.40491 155.415 8.11845C155.158 7.82244 155.029 7.46914 155.029 7.05855Z" fill="#141C24"/>
<path d="M163.938 11.1692L167.332 16.8125L170.77 11.1692H173.878L168.807 18.8177L174.035 26.6666H170.97L167.389 20.8515L163.809 26.6666H160.729L165.943 18.8177L160.887 11.1692H163.938Z" fill="#141C24"/>
</svg>
