<svg width="214" height="33" viewBox="0 0 214 33" fill="none" xmlns="http://www.w3.org/2000/svg">
<path d="M21.7139 16C21.7139 24.8366 16.9277 32 11.0236 32C5.11954 32 0.333344 24.8366 0.333344 16C0.333344 7.16344 5.11954 0 11.0236 0C16.9277 0 21.7139 7.16344 21.7139 16Z" fill="#3333FF"/>
<path d="M32.3333 16C32.3333 24.8366 27.5471 32 21.6431 32C15.739 32 10.9528 24.8366 10.9528 16C10.9528 7.16344 15.739 0 21.6431 0C27.5471 0 32.3333 7.16344 32.3333 16Z" fill="#0095FF"/>
<path d="M51.6459 10.9375C51.5347 9.95135 51.0764 9.18746 50.2709 8.64579C49.4653 8.09718 48.4514 7.82288 47.2292 7.82288C46.3542 7.82288 45.5972 7.96177 44.9584 8.23954C44.3195 8.51038 43.8229 8.88538 43.4688 9.36454C43.1215 9.83676 42.9479 10.375 42.9479 10.9791C42.9479 11.4861 43.066 11.9236 43.3021 12.2916C43.5452 12.6597 43.8611 12.9687 44.25 13.2187C44.6459 13.4618 45.0695 13.6666 45.5209 13.8333C45.9722 13.993 46.4063 14.125 46.8229 14.2291L48.9063 14.7708C49.5868 14.9375 50.2847 15.1632 51 15.4479C51.7153 15.7326 52.3785 16.1076 52.9896 16.5729C53.6007 17.0382 54.0938 17.6145 54.4688 18.302C54.8507 18.9895 55.0417 19.8125 55.0417 20.7708C55.0417 21.9791 54.7292 23.052 54.1042 23.9895C53.4861 24.927 52.5868 25.6666 51.4063 26.2083C50.2327 26.75 48.8125 27.0208 47.1459 27.0208C45.5486 27.0208 44.1667 26.7673 43 26.2604C41.8334 25.7534 40.9202 25.0347 40.2604 24.1041C39.6007 23.1666 39.2361 22.0555 39.1667 20.7708H42.3959C42.4584 21.5416 42.7084 22.184 43.1459 22.6979C43.5903 23.2048 44.1563 23.5833 44.8438 23.8333C45.5382 24.0763 46.2986 24.1979 47.125 24.1979C48.0347 24.1979 48.8438 24.0555 49.5521 23.7708C50.2674 23.4791 50.8299 23.0763 51.2396 22.5625C51.6493 22.0416 51.8542 21.434 51.8542 20.7395C51.8542 20.1076 51.6736 19.5902 51.3125 19.1875C50.9584 18.7847 50.4757 18.4513 49.8646 18.1875C49.2604 17.9236 48.5764 17.6909 47.8125 17.4895L45.2917 16.802C43.5834 16.3368 42.2292 15.6527 41.2292 14.75C40.2361 13.8472 39.7396 12.6527 39.7396 11.1666C39.7396 9.93746 40.0729 8.86454 40.7396 7.94788C41.4063 7.03121 42.309 6.3194 43.4479 5.81246C44.5868 5.29857 45.8715 5.04163 47.3021 5.04163C48.7465 5.04163 50.0209 5.2951 51.125 5.80204C52.2361 6.30899 53.1111 7.0069 53.75 7.89579C54.3889 8.77774 54.7222 9.79163 54.75 10.9375H51.6459Z" fill="#141C24"/>
<path d="M58.638 32.6666V10.6666H61.6797V13.2604H61.9401C62.1207 12.927 62.3811 12.5416 62.7214 12.1041C63.0617 11.6666 63.5339 11.2847 64.138 10.9583C64.7422 10.625 65.5408 10.4583 66.5339 10.4583C67.8255 10.4583 68.9783 10.7847 69.9922 11.4375C71.0061 12.0902 71.8012 13.0312 72.3776 14.2604C72.961 15.4895 73.2526 16.9687 73.2526 18.6979C73.2526 20.427 72.9644 21.9097 72.388 23.1458C71.8117 24.375 71.02 25.3229 70.013 25.9895C69.0061 26.6493 67.8568 26.9791 66.5651 26.9791C65.5929 26.9791 64.7978 26.8159 64.1797 26.4895C63.5686 26.1632 63.0894 25.7812 62.7422 25.3437C62.395 24.9062 62.1276 24.5173 61.9401 24.177H61.7526V32.6666H58.638ZM61.6901 18.6666C61.6901 19.7916 61.8533 20.7777 62.1797 21.625C62.5061 22.4722 62.9783 23.1354 63.5964 23.6145C64.2144 24.0868 64.9714 24.3229 65.8672 24.3229C66.7978 24.3229 67.5755 24.0763 68.2005 23.5833C68.8255 23.0833 69.2978 22.4062 69.6172 21.552C69.9436 20.6979 70.1068 19.7361 70.1068 18.6666C70.1068 17.6111 69.9471 16.6632 69.6276 15.8229C69.3151 14.9826 68.8429 14.3194 68.211 13.8333C67.586 13.3472 66.8047 13.1041 65.8672 13.1041C64.9644 13.1041 64.2005 13.3368 63.5755 13.802C62.9575 14.2673 62.4887 14.9166 62.1693 15.75C61.8498 16.5833 61.6901 17.5555 61.6901 18.6666Z" fill="#141C24"/>
<path d="M83.638 26.9895C82.0617 26.9895 80.704 26.6527 79.5651 25.9791C78.4332 25.2986 77.5582 24.3437 76.9401 23.1145C76.329 21.8784 76.0235 20.4305 76.0235 18.7708C76.0235 17.1319 76.329 15.6875 76.9401 14.4375C77.5582 13.1875 78.4193 12.2118 79.5235 11.5104C80.6346 10.809 81.9332 10.4583 83.4193 10.4583C84.3221 10.4583 85.1971 10.6076 86.0443 10.9062C86.8915 11.2048 87.6519 11.6736 88.3255 12.3125C88.9992 12.9513 89.5304 13.7812 89.9193 14.802C90.3082 15.8159 90.5026 17.0486 90.5026 18.5V19.6041H77.7839V17.2708H87.4505C87.4505 16.4513 87.2839 15.7257 86.9505 15.0937C86.6172 14.4548 86.1485 13.9513 85.5443 13.5833C84.9471 13.2152 84.2457 13.0312 83.4401 13.0312C82.5651 13.0312 81.8012 13.2465 81.1485 13.677C80.5026 14.1007 80.0026 14.6562 79.6485 15.3437C79.3012 16.0243 79.1276 16.7638 79.1276 17.5625V19.3854C79.1276 20.4548 79.3151 21.3645 79.6901 22.1145C80.0721 22.8645 80.6033 23.4375 81.2839 23.8333C81.9644 24.2222 82.7596 24.4166 83.6693 24.4166C84.2596 24.4166 84.7978 24.3333 85.2839 24.1666C85.77 23.993 86.1901 23.7361 86.5443 23.3958C86.8985 23.0555 87.1693 22.6354 87.3568 22.1354L90.3047 22.6666C90.0686 23.5347 89.645 24.2951 89.0339 24.9479C88.4297 25.5937 87.6693 26.0972 86.7526 26.4583C85.8429 26.8125 84.8047 26.9895 83.638 26.9895Z" fill="#141C24"/>
<path d="M100.698 26.9895C99.1493 26.9895 97.816 26.6388 96.6979 25.9375C95.5868 25.2291 94.7327 24.2534 94.1354 23.0104C93.5382 21.7673 93.2396 20.3437 93.2396 18.7395C93.2396 17.1145 93.5452 15.6805 94.1563 14.4375C94.7674 13.1875 95.6285 12.2118 96.7396 11.5104C97.8507 10.809 99.1597 10.4583 100.667 10.4583C101.882 10.4583 102.965 10.684 103.917 11.1354C104.868 11.5798 105.635 12.2048 106.219 13.0104C106.809 13.8159 107.16 14.7569 107.271 15.8333H104.24C104.073 15.0833 103.691 14.4375 103.094 13.8958C102.503 13.3541 101.712 13.0833 100.719 13.0833C99.8507 13.0833 99.0903 13.3125 98.4375 13.7708C97.7917 14.2222 97.2882 14.868 96.9271 15.7083C96.566 16.5416 96.3854 17.5277 96.3854 18.6666C96.3854 19.8333 96.5625 20.8402 96.9167 21.6875C97.2709 22.5347 97.7709 23.1909 98.4167 23.6562C99.0695 24.1215 99.8368 24.3541 100.719 24.3541C101.309 24.3541 101.844 24.2465 102.323 24.0312C102.809 23.809 103.215 23.493 103.542 23.0833C103.875 22.6736 104.108 22.1805 104.24 21.6041H107.271C107.16 22.6388 106.823 23.5625 106.26 24.375C105.698 25.1875 104.944 25.8263 104 26.2916C103.063 26.7569 101.962 26.9895 100.698 26.9895Z" fill="#141C24"/>
<path d="M118.07 10.6666V13.1666H109.331V10.6666H118.07ZM111.674 6.83329H114.789V21.9687C114.789 22.5729 114.879 23.0277 115.06 23.3333C115.24 23.6319 115.473 23.8368 115.758 23.9479C116.049 24.052 116.365 24.1041 116.706 24.1041C116.956 24.1041 117.174 24.0868 117.362 24.052C117.549 24.0173 117.695 23.9895 117.799 23.9687L118.362 26.5416C118.181 26.6111 117.924 26.6805 117.591 26.75C117.258 26.8263 116.841 26.868 116.341 26.875C115.522 26.8888 114.758 26.743 114.049 26.4375C113.341 26.1319 112.768 25.6597 112.331 25.0208C111.893 24.3819 111.674 23.5798 111.674 22.6145V6.83329Z" fill="#141C24"/>
<path d="M121.516 26.6666V10.6666H124.526V13.2083H124.693C124.984 12.3472 125.498 11.6701 126.234 11.177C126.977 10.677 127.818 10.427 128.755 10.427C128.95 10.427 129.179 10.434 129.443 10.4479C129.714 10.4618 129.925 10.4791 130.078 10.5V13.4791C129.953 13.4444 129.731 13.4062 129.411 13.3645C129.092 13.3159 128.773 13.2916 128.453 13.2916C127.717 13.2916 127.061 13.4479 126.484 13.7604C125.915 14.0659 125.464 14.493 125.13 15.0416C124.797 15.5833 124.63 16.2013 124.63 16.8958V26.6666H121.516Z" fill="#141C24"/>
<path d="M137.286 27.0208C136.273 27.0208 135.356 26.8333 134.536 26.4583C133.717 26.0763 133.068 25.5243 132.589 24.802C132.116 24.0798 131.88 23.1944 131.88 22.1458C131.88 21.243 132.054 20.5 132.401 19.9166C132.748 19.3333 133.217 18.8715 133.807 18.5312C134.398 18.1909 135.057 17.934 135.786 17.7604C136.516 17.5868 137.259 17.4548 138.016 17.3645C138.974 17.2534 139.752 17.1632 140.349 17.0937C140.946 17.0173 141.38 16.8958 141.651 16.7291C141.922 16.5625 142.057 16.2916 142.057 15.9166V15.8437C142.057 14.934 141.8 14.2291 141.286 13.7291C140.78 13.2291 140.023 12.9791 139.016 12.9791C137.967 12.9791 137.141 13.2118 136.536 13.677C135.939 14.1354 135.526 14.6458 135.297 15.2083L132.37 14.5416C132.717 13.5694 133.224 12.7847 133.891 12.1875C134.564 11.5833 135.339 11.1458 136.214 10.875C137.089 10.5972 138.009 10.4583 138.974 10.4583C139.613 10.4583 140.29 10.5347 141.005 10.6875C141.727 10.8333 142.401 11.1041 143.026 11.5C143.658 11.8958 144.175 12.4618 144.578 13.1979C144.981 13.927 145.182 14.875 145.182 16.0416V26.6666H142.141V24.4791H142.016C141.814 24.8819 141.512 25.2777 141.109 25.6666C140.707 26.0555 140.189 26.3784 139.557 26.6354C138.925 26.8923 138.168 27.0208 137.286 27.0208ZM137.964 24.5208C138.825 24.5208 139.561 24.3507 140.172 24.0104C140.79 23.6701 141.259 23.2257 141.578 22.677C141.905 22.1215 142.068 21.5277 142.068 20.8958V18.8333C141.957 18.9444 141.741 19.0486 141.422 19.1458C141.109 19.2361 140.752 19.3159 140.349 19.3854C139.946 19.4479 139.554 19.5069 139.172 19.5625C138.79 19.6111 138.471 19.6527 138.214 19.6875C137.609 19.7638 137.057 19.8923 136.557 20.0729C136.064 20.2534 135.668 20.5138 135.37 20.8541C135.078 21.1875 134.932 21.6319 134.932 22.1875C134.932 22.9583 135.217 23.5416 135.786 23.9375C136.356 24.3263 137.082 24.5208 137.964 24.5208Z" fill="#141C24"/>
<path d="M149.581 26.6666V5.33329H162.81V8.10413H152.799V14.6041H161.862V17.3645H152.799V26.6666H149.581Z" fill="#141C24"/>
<path d="M175.651 20.0312V10.6666H178.776V26.6666H175.714V23.8958H175.547C175.179 24.75 174.589 25.4618 173.776 26.0312C172.971 26.5937 171.967 26.875 170.766 26.875C169.738 26.875 168.828 26.6493 168.036 26.1979C167.252 25.7395 166.634 25.0625 166.182 24.1666C165.738 23.2708 165.516 22.1632 165.516 20.8437V10.6666H168.63V20.4687C168.63 21.559 168.932 22.427 169.536 23.0729C170.141 23.7187 170.925 24.0416 171.891 24.0416C172.474 24.0416 173.054 23.8958 173.63 23.6041C174.214 23.3125 174.696 22.8715 175.078 22.2812C175.467 21.6909 175.658 20.9409 175.651 20.0312Z" fill="#141C24"/>
<path d="M194.951 14.5729L192.128 15.0729C192.01 14.7118 191.822 14.368 191.565 14.0416C191.315 13.7152 190.975 13.4479 190.544 13.2395C190.114 13.0312 189.576 12.927 188.93 12.927C188.048 12.927 187.312 13.125 186.721 13.5208C186.131 13.9097 185.836 14.4132 185.836 15.0312C185.836 15.5659 186.034 15.9965 186.43 16.3229C186.826 16.6493 187.464 16.9166 188.346 17.125L190.888 17.7083C192.36 18.0486 193.457 18.5729 194.18 19.2812C194.902 19.9895 195.263 20.9097 195.263 22.0416C195.263 23 194.985 23.8541 194.43 24.6041C193.881 25.3472 193.114 25.9305 192.128 26.3541C191.148 26.7777 190.013 26.9895 188.721 26.9895C186.93 26.9895 185.468 26.6076 184.336 25.8437C183.204 25.0729 182.51 23.9791 182.253 22.5625L185.263 22.1041C185.451 22.8888 185.836 23.4826 186.419 23.8854C187.003 24.2812 187.763 24.4791 188.701 24.4791C189.721 24.4791 190.537 24.2673 191.148 23.8437C191.76 23.4132 192.065 22.8888 192.065 22.2708C192.065 21.7708 191.878 21.3507 191.503 21.0104C191.135 20.6701 190.569 20.4132 189.805 20.2395L187.096 19.6458C185.603 19.3055 184.499 18.7638 183.784 18.0208C183.076 17.2777 182.721 16.3368 182.721 15.1979C182.721 14.2534 182.985 13.427 183.513 12.7187C184.041 12.0104 184.77 11.4583 185.701 11.0625C186.631 10.6597 187.697 10.4583 188.898 10.4583C190.628 10.4583 191.989 10.8333 192.982 11.5833C193.975 12.3263 194.631 13.3229 194.951 14.5729Z" fill="#141C24"/>
<path d="M205.583 26.9895C204.007 26.9895 202.649 26.6527 201.51 25.9791C200.378 25.2986 199.503 24.3437 198.885 23.1145C198.274 21.8784 197.969 20.4305 197.969 18.7708C197.969 17.1319 198.274 15.6875 198.885 14.4375C199.503 13.1875 200.365 12.2118 201.469 11.5104C202.58 10.809 203.878 10.4583 205.365 10.4583C206.267 10.4583 207.142 10.6076 207.99 10.9062C208.837 11.2048 209.597 11.6736 210.271 12.3125C210.944 12.9513 211.476 13.7812 211.865 14.802C212.253 15.8159 212.448 17.0486 212.448 18.5V19.6041H199.729V17.2708H209.396C209.396 16.4513 209.229 15.7257 208.896 15.0937C208.563 14.4548 208.094 13.9513 207.49 13.5833C206.892 13.2152 206.191 13.0312 205.385 13.0312C204.51 13.0312 203.747 13.2465 203.094 13.677C202.448 14.1007 201.948 14.6562 201.594 15.3437C201.247 16.0243 201.073 16.7638 201.073 17.5625V19.3854C201.073 20.4548 201.26 21.3645 201.635 22.1145C202.017 22.8645 202.549 23.4375 203.229 23.8333C203.91 24.2222 204.705 24.4166 205.615 24.4166C206.205 24.4166 206.743 24.3333 207.229 24.1666C207.715 23.993 208.135 23.7361 208.49 23.3958C208.844 23.0555 209.115 22.6354 209.302 22.1354L212.25 22.6666C212.014 23.5347 211.59 24.2951 210.979 24.9479C210.375 25.5937 209.615 26.0972 208.698 26.4583C207.788 26.8125 206.75 26.9895 205.583 26.9895Z" fill="#141C24"/>
</svg>
