<svg width="20" height="20" viewBox="0 0 20 20" fill="none" xmlns="http://www.w3.org/2000/svg">
<path d="M10.7026 15.1307C12.0871 15.8275 13.7097 16.3358 15.6047 16.5679C16.1781 16.6382 16.6667 16.1777 16.6667 15.6001V14.1141C16.6667 13.6553 16.3544 13.2553 15.9092 13.144L13.8826 12.6374C13.5419 12.5522 13.1814 12.652 12.933 12.9004L10.7026 15.1307ZM10.7026 15.1307C8.10625 13.824 6.34755 11.8542 5.20098 9.79907M5.20098 9.79907C4.14692 7.90974 3.61019 5.94831 3.41555 4.36365C3.34663 3.80252 3.80189 3.33337 4.36723 3.33337H5.84687C6.32355 3.33337 6.73397 3.66983 6.82745 4.13726L7.39505 6.97525C7.46062 7.30311 7.358 7.64205 7.12158 7.87847L5.20098 9.79907Z" stroke="#97A1AF" stroke-width="1.5"/>
</svg>
