<svg width="28" height="28" viewBox="0 0 28 28" fill="none" xmlns="http://www.w3.org/2000/svg">
<path d="M13.3449 2.73869C13.6129 2.19811 14.3871 2.19811 14.655 2.73869L17.6943 8.87035C17.8007 9.08501 18.0064 9.2338 18.2443 9.26822L25.0404 10.2515C25.6396 10.3382 25.8788 11.0713 25.4452 11.4921L20.5276 16.2649C20.3554 16.432 20.2768 16.6727 20.3175 16.9087L21.4784 23.648C21.5807 24.2422 20.9544 24.6953 20.4185 24.4148L14.3399 21.2329C14.1271 21.1215 13.8729 21.1215 13.6601 21.2329L7.58146 24.4148C7.04556 24.6953 6.41922 24.2422 6.52157 23.648L7.68248 16.9087C7.72312 16.6727 7.64456 16.432 7.47239 16.2649L2.55471 11.4921C2.12115 11.0713 2.3604 10.3382 2.95955 10.2515L9.75562 9.26822C9.99355 9.2338 10.1992 9.08501 10.3056 8.87035L13.3449 2.73869Z" fill="#FFB31A"/>
</svg>
