<svg width="200" height="40" viewBox="0 0 200 40" fill="none" xmlns="http://www.w3.org/2000/svg">
<path d="M15.7827 1.50454C17.1551 0.720005 18.8459 0.720005 20.2183 1.50454L33.0688 8.85059C34.4412 9.63512 35.2866 11.085 35.2866 12.6541V27.3462C35.2866 28.9152 34.4412 30.3651 33.0688 31.1496L20.2183 38.4957C18.8459 39.2802 17.1551 39.2802 15.7827 38.4957L2.93217 31.1496C1.55978 30.3651 0.714355 28.9152 0.714355 27.3462V12.6541C0.714355 11.085 1.55978 9.63512 2.93217 8.85059L15.7827 1.50454Z" fill="#141C24"/>
<path d="M15.7827 1.50454C17.1551 0.720005 18.8459 0.720005 20.2183 1.50454L33.0688 8.85059C34.4412 9.63512 35.2866 11.085 35.2866 12.6541V27.3462C35.2866 28.9152 34.4412 30.3651 33.0688 31.1496L20.2183 38.4957C18.8459 39.2802 17.1551 39.2802 15.7827 38.4957L2.93217 31.1496C1.55978 30.3651 0.714355 28.9152 0.714355 27.3462V12.6541C0.714355 11.085 1.55978 9.63512 2.93217 8.85059L15.7827 1.50454Z" fill="url(#paint0_angular_2_106573)" fill-opacity="0.4"/>
<path fill-rule="evenodd" clip-rule="evenodd" d="M15.4008 0.697148C17.0092 -0.232383 18.9908 -0.232383 20.5992 0.697148L33.4008 8.09536C35.0092 9.02489 36 10.7427 36 12.6018V27.3982C36 29.2573 35.0092 30.9751 33.4008 31.9046L20.5992 39.3028C18.9908 40.2324 17.0092 40.2324 15.4008 39.3028L2.59924 31.9046C0.990826 30.9751 0 29.2573 0 27.3982V12.6018C0 10.7427 0.990826 9.02489 2.59924 8.09536L15.4008 0.697148ZM19.8195 2.04908C18.6936 1.39841 17.3064 1.39841 16.1805 2.04908L3.37901 9.44729C2.25312 10.098 1.55955 11.3004 1.55955 12.6018V27.3982C1.55955 28.6995 2.25312 29.902 3.37902 30.5527L16.1805 37.9509C17.3064 38.6016 18.6936 38.6016 19.8195 37.9509L32.621 30.5527C33.7469 29.902 34.4405 28.6995 34.4405 27.3982V12.6018C34.4405 11.3004 33.7469 10.098 32.621 9.44729L19.8195 2.04908Z" fill="#97A1AF"/>
<path d="M28.8957 16.6662C29.4497 15.7086 29.1209 14.4841 28.1614 13.9312C27.2019 13.3783 25.9749 13.7064 25.4209 14.664L19.4681 24.9542C18.9141 25.9118 19.2429 27.1364 20.2024 27.6892C21.162 28.2421 22.3889 27.914 22.9429 26.9564L28.8957 16.6662Z" fill="white"/>
<path d="M13.5507 21.9909L16.3053 17.2293C16.8593 16.2716 18.0862 15.9435 19.0458 16.4964C20.0053 17.0493 20.3341 18.2738 19.7801 19.2315L15.3088 26.9606C14.7548 27.9183 13.5278 28.2464 12.5683 27.6935C12.2561 27.5136 12.0106 27.2625 11.8406 26.9727L11.8098 26.9904L5.83997 16.6709C5.28598 15.7132 5.61475 14.4887 6.57429 13.9358C7.53383 13.3829 8.76079 13.711 9.31478 14.6686L13.5507 21.9909Z" fill="white"/>
<path d="M50.4375 27.8264L46 11.8264H48.5391L51.6562 24.217H51.8047L55.0469 11.8264H57.5625L60.8047 24.2249H60.9531L64.0625 11.8264H66.6094L62.1641 27.8264H59.7344L56.3672 15.842H56.2422L52.875 27.8264H50.4375Z" fill="#141C24"/>
<path d="M70.959 20.7014V27.8264H68.623V11.8264H70.9277V17.7795H71.0762C71.3574 17.1337 71.7871 16.6207 72.3652 16.2405C72.9434 15.8603 73.6986 15.6702 74.6309 15.6702C75.4538 15.6702 76.1725 15.8394 76.7871 16.178C77.4069 16.5165 77.8861 17.0217 78.2246 17.6936C78.5684 18.3603 78.7402 19.1936 78.7402 20.1936V27.8264H76.4043V20.4749C76.4043 19.5946 76.1777 18.9124 75.7246 18.428C75.2715 17.9384 74.6413 17.6936 73.834 17.6936C73.2819 17.6936 72.7871 17.8108 72.3496 18.0452C71.9173 18.2795 71.5762 18.6233 71.3262 19.0764C71.0814 19.5243 70.959 20.066 70.959 20.7014Z" fill="#141C24"/>
<path d="M81.8574 27.8264V15.8264H84.1934V27.8264H81.8574ZM83.0371 13.9749C82.6309 13.9749 82.2819 13.8394 81.9902 13.5686C81.7038 13.2926 81.5605 12.9644 81.5605 12.5842C81.5605 12.1988 81.7038 11.8707 81.9902 11.5999C82.2819 11.3238 82.6309 11.1858 83.0371 11.1858C83.4434 11.1858 83.7897 11.3238 84.0762 11.5999C84.3678 11.8707 84.5137 12.1988 84.5137 12.5842C84.5137 12.9644 84.3678 13.2926 84.0762 13.5686C83.7897 13.8394 83.4434 13.9749 83.0371 13.9749Z" fill="#141C24"/>
<path d="M92.9375 15.8264V17.7014H86.3828V15.8264H92.9375ZM88.1406 12.9514H90.4766V24.303C90.4766 24.7561 90.5443 25.0972 90.6797 25.3264C90.8151 25.5504 90.9896 25.704 91.2031 25.7874C91.4219 25.8655 91.6589 25.9045 91.9141 25.9045C92.1016 25.9045 92.2656 25.8915 92.4062 25.8655C92.5469 25.8394 92.6562 25.8186 92.7344 25.803L93.1562 27.7327C93.0208 27.7847 92.8281 27.8368 92.5781 27.8889C92.3281 27.9462 92.0156 27.9775 91.6406 27.9827C91.026 27.9931 90.4531 27.8837 89.9219 27.6545C89.3906 27.4254 88.9609 27.0712 88.6328 26.592C88.3047 26.1129 88.1406 25.5113 88.1406 24.7874V12.9514Z" fill="#141C24"/>
<path d="M100.564 28.0686C99.3822 28.0686 98.3639 27.816 97.5098 27.3108C96.6608 26.8004 96.0046 26.0842 95.541 25.1624C95.0827 24.2353 94.8535 23.1493 94.8535 21.9045C94.8535 20.6754 95.0827 19.592 95.541 18.6545C96.0046 17.717 96.6504 16.9853 97.4785 16.4592C98.3118 15.9332 99.2858 15.6702 100.4 15.6702C101.077 15.6702 101.734 15.7821 102.369 16.0061C103.005 16.2301 103.575 16.5816 104.08 17.0608C104.585 17.54 104.984 18.1624 105.275 18.928C105.567 19.6884 105.713 20.6129 105.713 21.7014V22.5295H96.1738V20.7795H103.424C103.424 20.165 103.299 19.6207 103.049 19.1467C102.799 18.6676 102.447 18.29 101.994 18.0139C101.546 17.7379 101.02 17.5999 100.416 17.5999C99.7598 17.5999 99.1868 17.7613 98.6973 18.0842C98.2129 18.4019 97.8379 18.8186 97.5723 19.3342C97.3118 19.8446 97.1816 20.3993 97.1816 20.9983V22.3655C97.1816 23.1676 97.3223 23.8499 97.6035 24.4124C97.89 24.9749 98.2884 25.4045 98.7988 25.7014C99.3092 25.9931 99.9056 26.1389 100.588 26.1389C101.031 26.1389 101.434 26.0764 101.799 25.9514C102.163 25.8212 102.479 25.6285 102.744 25.3733C103.01 25.1181 103.213 24.803 103.354 24.428L105.564 24.8264C105.387 25.4775 105.07 26.0478 104.611 26.5374C104.158 27.0217 103.588 27.3993 102.9 27.6702C102.218 27.9358 101.439 28.0686 100.564 28.0686Z" fill="#141C24"/>
<path d="M117.297 18.7561L115.18 19.1311C115.091 18.8603 114.951 18.6025 114.758 18.3577C114.57 18.1129 114.315 17.9124 113.992 17.7561C113.669 17.5999 113.266 17.5217 112.781 17.5217C112.12 17.5217 111.568 17.6702 111.125 17.967C110.682 18.2587 110.461 18.6363 110.461 19.0999C110.461 19.5009 110.609 19.8238 110.906 20.0686C111.203 20.3134 111.682 20.5139 112.344 20.6702L114.25 21.1077C115.354 21.3629 116.177 21.7561 116.719 22.2874C117.26 22.8186 117.531 23.5087 117.531 24.3577C117.531 25.0764 117.323 25.717 116.906 26.2795C116.495 26.8368 115.919 27.2743 115.18 27.592C114.445 27.9097 113.594 28.0686 112.625 28.0686C111.281 28.0686 110.185 27.7821 109.336 27.2092C108.487 26.6311 107.966 25.8108 107.773 24.7483L110.031 24.4045C110.172 24.9931 110.461 25.4384 110.898 25.7405C111.336 26.0374 111.906 26.1858 112.609 26.1858C113.375 26.1858 113.987 26.0269 114.445 25.7092C114.904 25.3863 115.133 24.9931 115.133 24.5295C115.133 24.1545 114.992 23.8394 114.711 23.5842C114.435 23.329 114.01 23.1363 113.438 23.0061L111.406 22.5608C110.286 22.3056 109.458 21.8993 108.922 21.342C108.391 20.7847 108.125 20.079 108.125 19.2249C108.125 18.5165 108.323 17.8967 108.719 17.3655C109.115 16.8342 109.661 16.4202 110.359 16.1233C111.057 15.8212 111.857 15.6702 112.758 15.6702C114.055 15.6702 115.076 15.9514 115.82 16.5139C116.565 17.0712 117.057 17.8186 117.297 18.7561Z" fill="#141C24"/>
<path d="M120.1 32.3264V15.8264H122.381V17.7717H122.576C122.712 17.5217 122.907 17.2327 123.162 16.9045C123.417 16.5764 123.771 16.29 124.225 16.0452C124.678 15.7952 125.277 15.6702 126.021 15.6702C126.99 15.6702 127.855 15.915 128.615 16.4045C129.376 16.8941 129.972 17.5999 130.404 18.5217C130.842 19.4436 131.061 20.553 131.061 21.8499C131.061 23.1467 130.844 24.2587 130.412 25.1858C129.98 26.1077 129.386 26.8186 128.631 27.3186C127.876 27.8134 127.014 28.0608 126.045 28.0608C125.316 28.0608 124.719 27.9384 124.256 27.6936C123.798 27.4488 123.438 27.1624 123.178 26.8342C122.917 26.5061 122.717 26.2144 122.576 25.9592H122.436V32.3264H120.1ZM122.389 21.8264C122.389 22.6702 122.511 23.4097 122.756 24.0452C123.001 24.6806 123.355 25.178 123.818 25.5374C124.282 25.8915 124.85 26.0686 125.521 26.0686C126.219 26.0686 126.803 25.8837 127.271 25.5139C127.74 25.1389 128.094 24.6311 128.334 23.9905C128.579 23.3499 128.701 22.6285 128.701 21.8264C128.701 21.0347 128.581 20.3238 128.342 19.6936C128.107 19.0634 127.753 18.566 127.279 18.2014C126.811 17.8368 126.225 17.6545 125.521 17.6545C124.844 17.6545 124.271 17.829 123.803 18.178C123.339 18.5269 122.988 19.0139 122.748 19.6389C122.508 20.2639 122.389 20.9931 122.389 21.8264Z" fill="#141C24"/>
<path d="M137.17 28.092C136.41 28.092 135.722 27.9514 135.107 27.6702C134.493 27.3837 134.006 26.9696 133.646 26.428C133.292 25.8863 133.115 25.2222 133.115 24.4358C133.115 23.7587 133.245 23.2014 133.506 22.7639C133.766 22.3264 134.118 21.9801 134.561 21.7249C135.003 21.4696 135.498 21.2769 136.045 21.1467C136.592 21.0165 137.149 20.9176 137.717 20.8499C138.436 20.7665 139.019 20.6988 139.467 20.6467C139.915 20.5894 140.24 20.4983 140.443 20.3733C140.646 20.2483 140.748 20.0452 140.748 19.7639V19.7092C140.748 19.0269 140.555 18.4983 140.17 18.1233C139.79 17.7483 139.222 17.5608 138.467 17.5608C137.68 17.5608 137.061 17.7353 136.607 18.0842C136.16 18.428 135.85 18.8108 135.678 19.2327L133.482 18.7327C133.743 18.0035 134.123 17.415 134.623 16.967C135.128 16.5139 135.709 16.1858 136.365 15.9827C137.021 15.7743 137.712 15.6702 138.436 15.6702C138.915 15.6702 139.423 15.7275 139.959 15.842C140.501 15.9514 141.006 16.1545 141.475 16.4514C141.949 16.7483 142.337 17.1728 142.639 17.7249C142.941 18.2717 143.092 18.9827 143.092 19.8577V27.8264H140.811V26.1858H140.717C140.566 26.4879 140.339 26.7847 140.037 27.0764C139.735 27.3681 139.347 27.6103 138.873 27.803C138.399 27.9957 137.831 28.092 137.17 28.092ZM137.678 26.217C138.324 26.217 138.876 26.0894 139.334 25.8342C139.798 25.579 140.149 25.2457 140.389 24.8342C140.633 24.4176 140.756 23.9722 140.756 23.4983V21.9514C140.673 22.0347 140.511 22.1129 140.271 22.1858C140.037 22.2535 139.769 22.3134 139.467 22.3655C139.165 22.4124 138.87 22.4566 138.584 22.4983C138.298 22.5347 138.058 22.566 137.865 22.592C137.412 22.6493 136.998 22.7457 136.623 22.8811C136.253 23.0165 135.956 23.2118 135.732 23.467C135.514 23.717 135.404 24.0504 135.404 24.467C135.404 25.0452 135.618 25.4827 136.045 25.7795C136.472 26.0712 137.016 26.217 137.678 26.217Z" fill="#141C24"/>
<path d="M151.258 28.0686C150.096 28.0686 149.096 27.8056 148.258 27.2795C147.424 26.7483 146.784 26.0165 146.336 25.0842C145.888 24.1519 145.664 23.0842 145.664 21.8811C145.664 20.6624 145.893 19.5868 146.352 18.6545C146.81 17.717 147.456 16.9853 148.289 16.4592C149.122 15.9332 150.104 15.6702 151.234 15.6702C152.146 15.6702 152.958 15.8394 153.672 16.178C154.385 16.5113 154.961 16.9801 155.398 17.5842C155.841 18.1884 156.104 18.8941 156.188 19.7014H153.914C153.789 19.1389 153.503 18.6545 153.055 18.2483C152.612 17.842 152.018 17.6389 151.273 17.6389C150.622 17.6389 150.052 17.8108 149.562 18.1545C149.078 18.4931 148.701 18.9775 148.43 19.6077C148.159 20.2327 148.023 20.9722 148.023 21.8264C148.023 22.7014 148.156 23.4566 148.422 24.092C148.688 24.7275 149.062 25.2196 149.547 25.5686C150.036 25.9176 150.612 26.092 151.273 26.092C151.716 26.092 152.117 26.0113 152.477 25.8499C152.841 25.6832 153.146 25.4462 153.391 25.1389C153.641 24.8316 153.815 24.4618 153.914 24.0295H156.188C156.104 24.8056 155.852 25.4983 155.43 26.1077C155.008 26.717 154.443 27.1962 153.734 27.5452C153.031 27.8941 152.206 28.0686 151.258 28.0686Z" fill="#141C24"/>
<path d="M163.857 28.0686C162.675 28.0686 161.657 27.816 160.803 27.3108C159.954 26.8004 159.298 26.0842 158.834 25.1624C158.376 24.2353 158.146 23.1493 158.146 21.9045C158.146 20.6754 158.376 19.592 158.834 18.6545C159.298 17.717 159.943 16.9853 160.771 16.4592C161.605 15.9332 162.579 15.6702 163.693 15.6702C164.37 15.6702 165.027 15.7821 165.662 16.0061C166.298 16.2301 166.868 16.5816 167.373 17.0608C167.878 17.54 168.277 18.1624 168.568 18.928C168.86 19.6884 169.006 20.6129 169.006 21.7014V22.5295H159.467V20.7795H166.717C166.717 20.165 166.592 19.6207 166.342 19.1467C166.092 18.6676 165.74 18.29 165.287 18.0139C164.839 17.7379 164.313 17.5999 163.709 17.5999C163.053 17.5999 162.48 17.7613 161.99 18.0842C161.506 18.4019 161.131 18.8186 160.865 19.3342C160.605 19.8446 160.475 20.3993 160.475 20.9983V22.3655C160.475 23.1676 160.615 23.8499 160.896 24.4124C161.183 24.9749 161.581 25.4045 162.092 25.7014C162.602 25.9931 163.199 26.1389 163.881 26.1389C164.324 26.1389 164.727 26.0764 165.092 25.9514C165.456 25.8212 165.771 25.6285 166.037 25.3733C166.303 25.1181 166.506 24.803 166.646 24.428L168.857 24.8264C168.68 25.4775 168.363 26.0478 167.904 26.5374C167.451 27.0217 166.881 27.3993 166.193 27.6702C165.511 27.9358 164.732 28.0686 163.857 28.0686Z" fill="#141C24"/>
<path d="M187.896 11.8264H190.318V22.3499C190.318 23.4696 190.055 24.4618 189.529 25.3264C189.003 26.1858 188.264 26.8629 187.311 27.3577C186.357 27.8472 185.24 28.092 183.959 28.092C182.683 28.092 181.568 27.8472 180.615 27.3577C179.662 26.8629 178.923 26.1858 178.396 25.3264C177.87 24.4618 177.607 23.4696 177.607 22.3499V11.8264H180.021V22.1545C180.021 22.8785 180.18 23.5217 180.498 24.0842C180.821 24.6467 181.277 25.0894 181.865 25.4124C182.454 25.7301 183.152 25.8889 183.959 25.8889C184.771 25.8889 185.472 25.7301 186.061 25.4124C186.654 25.0894 187.107 24.6467 187.42 24.0842C187.738 23.5217 187.896 22.8785 187.896 22.1545V11.8264Z" fill="#141C24"/>
<path d="M196.242 11.8264V27.8264H193.828V11.8264H196.242Z" fill="#141C24"/>
<defs>
<radialGradient id="paint0_angular_2_106573" cx="0" cy="0" r="1" gradientUnits="userSpaceOnUse" gradientTransform="translate(18.0005 20.0001) rotate(90) scale(19.7634 19.9603)">
<stop offset="0.000421542" stop-color="#122136"/>
<stop offset="0.479167" stop-color="#60B2FD" stop-opacity="0.19"/>
<stop offset="1" stop-color="#2D9DFF" stop-opacity="0.06"/>
</radialGradient>
</defs>
</svg>
