<svg width="37" height="25" viewBox="0 0 37 25" fill="none" xmlns="http://www.w3.org/2000/svg">
<path d="M0 13.3243C0.0239992 19.7412 4.87972 25 10.8448 25C16.8245 25 21.6892 19.7624 21.6892 13.3243V11.676C21.6892 9.02507 23.6926 6.86811 26.1549 6.86811C28.6175 6.86811 30.6205 9.02507 30.6205 11.676C30.6205 12.4346 31.1918 13.0497 31.8964 13.0497H35.7241C36.429 13.0497 37 12.4346 37 11.676C37 5.23795 32.1353 0 26.1552 0C20.1755 0 15.3104 5.23795 15.3104 11.676V13.3243C15.3104 15.9757 13.307 18.1319 10.8451 18.1319C8.38289 18.1319 6.3795 15.9757 6.3795 13.3243C6.3795 12.5658 5.80817 11.9506 5.1036 11.9506H1.2759C0.571325 11.951 0 12.5658 0 13.3243Z" fill="#1975FF"/>
</svg>
